<svg xmlns="http://www.w3.org/2000/svg" viewBox="0 0 110 110">
  <defs>
    <linearGradient id="feather" x1="0" y1="0" x2="1" y2="1">
      <stop offset="0" stop-color="#f0e6cf"/>
      <stop offset="1" stop-color="#d9c8a1"/>
    </linearGradient>
    <linearGradient id="shaft" x1="0" y1="0" x2="0" y2="1">
      <stop offset="0" stop-color="#c49b66"/>
      <stop offset="1" stop-color="#8a673f"/>
    </linearGradient>
    <linearGradient id="glass" x1="0" y1="0" x2="0" y2="1">
      <stop offset="0" stop-color="#2a2a36"/>
      <stop offset="1" stop-color="#0e0e13"/>
    </linearGradient>
    <radialGradient id="inkShine" cx="60%" cy="30%" r="70%">
      <stop offset="0" stop-color="#4e4e61" stop-opacity=".45"/>
      <stop offset=".65" stop-color="#15151f" stop-opacity=".9"/>
      <stop offset="1" stop-color="#000" stop-opacity="1"/>
    </radialGradient>
    <filter id="softShadow" x="-30%" y="-30%" width="160%" height="160%">
      <feDropShadow dx="0" dy="5" stdDeviation="3.5" flood-color="#000" flood-opacity=".35"/>
    </filter>
  </defs>

  <ellipse cx="58" cy="91" rx="25" ry="8" fill="#000" opacity=".25"/>

  <g filter="url(#softShadow)">
    <ellipse cx="58" cy="76" rx="17" ry="7" fill="#101018"/>
    <rect x="42" y="54" width="32" height="25" rx="6" fill="url(#glass)"/>
    <ellipse cx="58" cy="54" rx="17" ry="7" fill="url(#inkShine)"/>
  </g>

  <g transform="rotate(-18 38 46)">
    <path d="M15 30c20-10 42-8 58 6-6 4-12 8-18 11-14 8-29 9-42 7 6-9 10-17 2-24z"
          fill="url(#feather)"/>
    <rect x="38" y="56" width="3.6" height="22" rx="1.6" fill="url(#shaft)"/>
  </g>
</svg>
