<svg xmlns="http://www.w3.org/2000/svg" viewBox="0 0 110 110">
  <defs>
    <radialGradient id="wax" cx="40%" cy="40%" r="70%">
      <stop offset="0" stop-color="#be1f24"/>
      <stop offset=".6" stop-color="#a11a1a"/>
      <stop offset="1" stop-color="#7c1214"/>
    </radialGradient>
    <linearGradient id="rim" x1="0" y1="0" x2="1" y2="1">
      <stop offset="0" stop-color="#e6c677"/>
      <stop offset="1" stop-color="#b9934d"/>
    </linearGradient>
  </defs>

  <ellipse cx="55" cy="96" rx="25" ry="8" fill="#000" opacity=".25"/>

  <path d="M55 22c10 0 20 6 22 14 3 8-2 18-8 22-6 4-10 6-14 6s-8-2-14-6c-6-4-11-14-8-22 3-8 12-14 22-14z"
        fill="url(#wax)"/>
  <circle cx="55" cy="50" r="17" fill="none" stroke="url(#rim)" stroke-width="2.4"/>
  <path d="M55 40c4 0 7 3 7 7 0 5-4 9-7 12-3-3-7-7-7-12 0-4 3-7 7-7z
           M55 45l-2 3h4l-2-3z"
        fill="#e8d08a" opacity=".9"/>
</svg>
